<svg id="レイヤー_1" data-name="レイヤー 1" xmlns="http://www.w3.org/2000/svg" viewBox="0 0 387 43"><defs><style>.cls-1{fill:#c1272d;}.cls-2{fill:#fff;}</style></defs><title>logo</title><rect class="cls-1" width="43" height="43"/><path d="M19.91,37a18.53,18.53,0,0,1-2-.07l-.27,0-1.49-3.07a19.49,19.49,0,0,1-3.41,2.5l-.25.15-7.32-4.3,1.31-.25a11.71,11.71,0,0,0,3.91-1.5l-1.45-.5.3-.15-.89.21L5.56,24.68l3.1-3.33-3.4-4.12.85-.15A17.34,17.34,0,0,0,11,15.53l-.47-.25L10,15.6,9.35,16l-4-4.67.76-.21a7.6,7.6,0,0,0,4-2.62L8.91,7.81,11.5,6.05l5.9.81-.19.57c0,.12-.09.25-.14.38l1.62-1.09,2,1.16,1.52-1.69,1.48,1.21c.93-.09,2.56-.15,4.16-.15.74,0,1.47,0,2.13,0l1.63-1.4,4.66,4.28-.19.34a17.33,17.33,0,0,1-3.37,4.14,21.42,21.42,0,0,0,4.19.54l.72,0-2.73,6.33L37.3,24l-1.95,5.7-.43-.09c-.88-.19-1.86-.35-2.92-.49a49.84,49.84,0,0,1,4.68,3.53l.64.54L29.91,36.1l-.23-.3a36.15,36.15,0,0,0-3.51-4.06v1.52c0,3.29-2.45,3.71-4.58,3.71Zm-2.11-4.74c.05,0,.13-.09.14-.13V31.7l-.36.51Zm.14-2.91v-.62q-1.2.06-2.29.15Zm8.25-.25,1.17-.36-1.17,0ZM11.25,23.17l2-.15-.77-1.26a20.28,20.28,0,0,1-1.86.93Zm18.91-.38,1.78.08,1.47-1.23a22.53,22.53,0,0,1-2.26-.9Zm-7.49-.14c-.62,0-1.28,0-2,0s-1.5,0-2.18.09c1.84-.06,3.76-.09,5.67-.09h.44c-.61,0-1.26,0-1.95,0ZM20,15a18.89,18.89,0,0,1-2.39,3c1.71-.09,3.53-.14,5-.16Zm1.25-2.29q-.36.79-.79,1.54A16.59,16.59,0,0,0,22.93,14q-.26-.38-.45-.75l-1,.38Z"/><path class="cls-2" d="M31.55,6.54l4,3.71a18.45,18.45,0,0,1-3.91,4.61,19.13,19.13,0,0,0,5.15.8l-2.47,5.75a21.58,21.58,0,0,1-3.44-1.34l-1.24,2.57a47.8,47.8,0,0,0-7-.5c-.64,0-1.3,0-2,0a35.26,35.26,0,0,0-6.89.7l-1.1-1.81a20,20,0,0,1-2.54,1.27L6.2,17.57a17,17,0,0,0,5.82-2c-.47-.27-1-.57-1.54-.84-.33.23-.67.43-1,.67L6.24,11.62c2.21-.6,4.48-2.37,4.48-3.34l-.87-.5,1.77-1.2,5.12.7a7,7,0,0,1-.47,1.07h.9l1.54-1,2,1.2,1.47-1.64,1.27,1c.87-.1,2.61-.17,4.31-.17.8,0,1.6,0,2.31,0l1.44-1.24M15.83,11.65a4.76,4.76,0,0,0,.4-.84c-.3,0-.94-.07-1.67-.07a4.68,4.68,0,0,1-.33.53c.5.1,1.07.23,1.6.37m.4,6.89c2.24-.17,4.88-.23,7.52-.27l-3.34-3.54a12.65,12.65,0,0,0,3.34-.43,9.85,9.85,0,0,1-1-1.67c-.3.1-.57.2-.9.33l-.53-1.77a18,18,0,0,1-5,7.36m12.2-6.92c-.47,0-1.3.07-2.17.13a7.6,7.6,0,0,0,1,1.07,4.38,4.38,0,0,0,1.17-1.2M14,14c.23-.2.43-.43.64-.64-.57-.2-1.17-.4-1.77-.57-.17.17-.37.37-.57.53.53.2,1.14.43,1.71.67m10.8,4.28h3c-.4-.3-.8-.6-1.14-.9a19.86,19.86,0,0,1-1.91.9m9.39,3.34,2.51,2.51-1.71,5a54.12,54.12,0,0,0-9.33-1v1.6l4.21-1.3A40.39,40.39,0,0,1,36.36,33l-6.29,2.47a34.49,34.49,0,0,0-4.41-4.91v2.67c0,2.61-1.67,3.21-4.08,3.21H19.91a18.15,18.15,0,0,1-2-.07L16.27,33a18.34,18.34,0,0,1-3.81,2.91L6.54,32.38a10.42,10.42,0,0,0,4.85-2.17l-1.17-.4,2.27-1.1,5.88,1.2a11.2,11.2,0,0,1-1.71,2.64,4.45,4.45,0,0,0,1.14.17.68.68,0,0,0,.64-.6V28.17a53.05,53.05,0,0,0-9.86,1.2L6.17,24.76l2.71-2.91,2.21,1.84c3.78-.33,8.56-.5,13.11-.5,2.81,0,5.55.07,7.92.2l2.11-1.77M31.57,5.2l-.67.58-1.14,1c-.62,0-1.3,0-2,0-1.5,0-3,.05-4,.13l-1-.78-.74-.6-.64.71-.92,1-1.33-.79-.54-.32-.52.35L18,6.56l0-.11-1.19-.16-5.12-.7-.38-.05-.32.22L9.29,6.95,8,7.84l1.38.8.05,0a8.06,8.06,0,0,1-3.43,2l-1.52.42,1,1.2L8.63,16a19.12,19.12,0,0,1-2.6.63l-1.7.29,1.1,1.33L8,21.32,5.44,24.08,5,24.6l.33.63,2.41,4.61,0,.07L7.6,30l.2.07.26.49.69-.17.38.13a11.63,11.63,0,0,1-2.77.91l-2.63.49L6,33.24l5.92,3.48.51.3.51-.3a21.11,21.11,0,0,0,3-2.11L17,36.83l.24.5.55.06a18.84,18.84,0,0,0,2.08.07h1.67c1.26,0,5.08,0,5.08-4.21V33a38.55,38.55,0,0,1,2.61,3.14l.46.61.71-.28,6.29-2.47,1.57-.62L37,32.25Q35.46,31,34.07,29.94l.74.15.87.19.29-.84,1.71-5,.2-.59-.44-.44-2-2,2.31-5.36.57-1.32-1.44-.07a25.1,25.1,0,0,1-3.21-.33,16.35,16.35,0,0,0,2.8-3.61l.38-.69-.58-.53-4-3.71-.65-.6ZM18.77,17.4A19.22,19.22,0,0,0,20,15.78l1.45,1.53-2.71.08Zm12.17,4.93.45-.93,1,.42-.65.55-.83,0Zm-19,.28.36-.19.09.15-.46,0Z"/><path d="M60.46,22.05v3.86h7.78l4.2-.11V27.6l-4.2-.11H60.46v2.88l.11,4.2H58.5l.11-4.2V27.48h-7.7l-4.2.11V25.8l4.2.11h7.7V22.05H55.06L51,22.16,50.86,22,51,18.52V13.4l-.11-3.53L51,9.76l4.09.11h9.16l4.09-.11.11.11L68.3,13.4v5.12L68.41,22l-.11.17-4.09-.11Zm6-10.61H52.79v3.64H66.48Zm0,5.18H52.79v3.89H66.48Z"/><path d="M80,20.54a25.09,25.09,0,0,1-3.78,7.62,4.53,4.53,0,0,0-1-1.34,27,27,0,0,0,4.34-9.74h-1l-2.8.11V15.5l2.8.11h1.32v-4c-1.18.2-2.41.34-3.58.42a4.36,4.36,0,0,0-.64-1.48,26.13,26.13,0,0,0,6.13-.87A9.77,9.77,0,0,0,83.48,9c1.4,1,1.54,1.26,1.54,1.46s-.14.34-.5.34a8.45,8.45,0,0,1-.9-.11,20.19,20.19,0,0,1-2.16.64v4.31h.81l2.8-.11v1.68l-2.8-.11h-.81v4l1-.81a17.81,17.81,0,0,1,3,3.05l-1.34,1.18a18.54,18.54,0,0,0-2.63-3.14v3.53l.11,9.44H79.73Zm8.2,9.35.11,4.2h-1.9l.11-4.2V22.25A10.75,10.75,0,0,0,86.28,20c2.55.2,2.83.39,2.83.7s-.31.42-.92.59ZM88,18.47a16.28,16.28,0,0,0-1.65-3.89L87.85,14a17.07,17.07,0,0,1,1.76,3.81Zm11.82-7.73c0,.2-.14.31-.48.31a6.48,6.48,0,0,1-1.15-.2,86,86,0,0,1-10.58,1.54,6,6,0,0,0-.76-1.46,62.27,62.27,0,0,0,9.38-1.4A10.36,10.36,0,0,0,97.84,9C99.35,10.07,99.77,10.49,99.77,10.74ZM92.41,32.5v1.68H90.62l.11-4.23v-6.5l-.11-3.25.11-.11,3.19.11h2.91l3.25-.11.11.11-.11,3.25V30l.11,4.09H98.35V32.5Zm0-14.67A13.93,13.93,0,0,0,91,14.07l1.57-.45a14.63,14.63,0,0,1,1.57,3.67Zm5.94,3.75H92.41v4h5.94Zm0,5.4H92.41v4.09h5.94Zm2-12.66c0,.22-.28.36-1,.36a31.25,31.25,0,0,1-1.88,4.23A8.5,8.5,0,0,0,96,18.33a21.71,21.71,0,0,0,1.51-3.58,6.4,6.4,0,0,0,.39-1.65C100,13.79,100.36,14.1,100.36,14.32Z"/><path d="M107.15,31.91v1.85h-1.93l.11-4.2V15.33l-.11-4.09.11-.11,4.09.11H122.3l4.09-.11.11.11-.11,4.09V29.5l.11,4.2h-1.93V31.91Zm7.67-19.07h-7.67v7.64h7.67Zm0,9.21h-7.67v8.26h7.67Zm9.74-1.57V12.84h-8v7.64Zm0,9.83V22.05h-8v8.26Z"/><path d="M142.65,10.49c1.37,1.18,1.6,1.46,1.6,1.68s-.31.39-1,.64c-2.35,5.29-6.08,8.4-11.82,10.89a3.88,3.88,0,0,0-1-1.51,22.68,22.68,0,0,0,5.21-2.63A13.93,13.93,0,0,0,132.9,18l.84-1.15a20.25,20.25,0,0,1,3.3,1.65,20.54,20.54,0,0,0,1.79-1.71,14,14,0,0,0-3.22-1.65l.81-1.18a18,18,0,0,1,3.42,1.57,13.57,13.57,0,0,0,1.68-3.05h-5.1a17.64,17.64,0,0,1-5.07,4.73,3.39,3.39,0,0,0-1-1.26,14.11,14.11,0,0,0,5.74-5.88,6.57,6.57,0,0,0,.59-1.48c2,.64,2.46.9,2.46,1.2s-.39.42-1.23.39c-.17.31-.34.59-.5.87h4.28l.64-.62ZM132,33.42a4.1,4.1,0,0,0-1-1.51,18.07,18.07,0,0,0,5.85-2.83A7.18,7.18,0,0,0,138,28c1.6,1.18,1.85,1.4,1.85,1.68s-.34.39-1.26.34A22.92,22.92,0,0,1,132,33.42Zm12.66-4.54.08,2.88c.06,1.88-.31,2.6-3.36,2.6h-1.29a7.66,7.66,0,0,0-.7-1.93,23.52,23.52,0,0,0,2.58.14c.73,0,.87-.17.87-1.2v-5H135.9l-3.64.11V24.82l3.64.11h15.32l3.64-.08v1.68l-3.64-.11h-6.58Zm-6.58-6.78V20.4l3.64.11h4l3.64-.11v1.71L145.73,22h-4Zm15.48-12c1.57,1.26,1.79,1.57,1.79,1.79s-.22.42-1.06.73a35.19,35.19,0,0,1-4.37,5.07,17.76,17.76,0,0,0,6.75,3.84,5.71,5.71,0,0,0-1.26,1.76c-6.69-3-9.94-7-11.7-13.89l1.48-.59a18.75,18.75,0,0,0,3.61,7.7,27.11,27.11,0,0,0,3.58-4.31h-2.21l-3.08.08v-1.6l3.08.08h2.35l.7-.67Zm-5,17.89a38.45,38.45,0,0,1,7.36,3.67l-1.06,1.62a32.39,32.39,0,0,0-7.31-3.95Z"/><path d="M180.36,32.22h-14V30.28c8.4-7.39,10.53-9.91,10.53-13.66,0-2.27-1.18-3.86-4.12-3.86a8.13,8.13,0,0,0-3.25.73l-.22,4h-1.88v-5a13.35,13.35,0,0,1,5.94-1.62c4.06,0,5.91,2.21,5.91,5.52,0,4.14-1.79,6.55-10.14,14h11.23Z"/><path d="M196.67,21.18c0,7.45-1.85,11.28-7.2,11.28-4.62,0-6.8-3.72-6.8-10.3,0-7.45,2-11.28,7.2-11.28C194.46,10.88,196.67,14.6,196.67,21.18Zm-2.44.39c0-5.88-1.4-8.79-4.65-8.79-2.66,0-4.51,1.76-4.51,9,0,5.91,1.4,8.85,4.68,8.85C192.44,30.62,194.24,28.83,194.24,21.58Z"/><path d="M210.64,32.22h-9.86V30.76l3.78-.28V13.37l-4.37,1.54V13.26l5.1-2h1.51V30.48l3.84.28Z"/><path d="M228.19,26.73c0,3.44-2.49,5.91-7.08,5.91-4.28,0-6.83-2.3-6.83-5.21,0-2.58,1.37-4.42,4.87-6.13-2.13-1-3.92-2.38-3.92-5.29s2.52-5.1,6.13-5.1c3.39,0,5.91,1.74,5.91,4.48s-1.43,4.06-3.95,5.49C225.8,22,228.19,23.34,228.19,26.73Zm-2.38.39c0-3-2.52-4-5.1-5.1-3.05,1.48-4.12,3-4.12,5s1.65,3.81,4.65,3.81S225.8,29.36,225.8,27.12Zm-3.95-6.86c1.82-1,3.14-2.41,3.14-4.28,0-2.27-1.54-3.36-3.84-3.36-1.85,0-3.61,1.06-3.61,3.11C217.54,18.22,219.56,19.28,221.86,20.26Z"/><path d="M243.17,29.16a10.17,10.17,0,0,0,3.08,1.93,21.4,21.4,0,0,0,5.85.59c4.12,0,7.25-.11,11.62-.34a6.28,6.28,0,0,0-.81,1.93c-3.3.08-6.1.11-8.4.11-4.34,0-7.17-.14-8.74-.73a9.06,9.06,0,0,1-3.47-2.24c-1.12.81-1.9,1.32-3.11,2-.08.7-.2.9-.48.9s-.53-.34-1.29-2.44a6.5,6.5,0,0,0,1.37-.45c.59-.25,1.51-.7,2.58-1.29V21.3h-1.51l-2.24.11V19.7l2.24.11H241l2.13-.11.11.11-.11,3.25Zm-.11-15.85a22.49,22.49,0,0,0-4.09-2.1L240,9.73a19.7,19.7,0,0,1,4.17,2Zm11.48,11.76V27h4.31l4.2-.11v1.6l-4.2-.11h-4.26l.06,2.41h-1.82l.06-2.41h-4.2l-4.2.11v-1.6l4.2.11h4.26V25.08h-2.38l-3.5.11-.14-.2.11-2.88v-2l-.11-3L247,17l3.53.11h2.38V15.33h-1.71l-3.36.08V13.9l3.36.08h1.71a6.86,6.86,0,0,0-.2-1.74c2.35.11,2.72.25,2.72.5s-.2.36-.92.53V14h2.18l3.36-.08v1.51l-3.36-.08h-2.18v1.79h2.55l3.53-.11.11.11-.11,3v2l.11,2.91-.11.17-3.53-.11Zm-9.3-14.81.11-.11,3.53.11h10.25l3.53-.11.11.11-.11,2.24.11,2.66H261v-3.5H247v3.5h-1.74l.11-2.66Zm7.7,10.16v-2h-4.31v2Zm-4.31,3.36h4.31v-2.1h-4.31ZM259,18.41h-4.45v2H259Zm0,3.28h-4.45v2.1H259Z"/><path d="M286.23,13.18l4.09-.11.11.11L290.32,16l.11,3.33h-1.88V14.69H268.23v4.68h-1.88l.11-3.33-.11-2.86.11-.11,4.09.11h12.57a25.83,25.83,0,0,0,1.26-2.74,7.33,7.33,0,0,0,.48-1.68c2.18.67,2.6.9,2.6,1.15s-.22.42-1.06.5c-.48.92-1,1.85-1.48,2.77Zm-3.7,4.12,3.25-.14.11.11-.11,2.13v2l.11,2.13-.11.11-3.25-.11h-3.28l-.67,2.94h5.52l4.09-.11.11.11-.11,2.41v1.88l.11,3.64h-1.88V33.08H271.06v1.48h-1.88l.11-3.64v-2l-.11-2.41.11-.11,4.09.11h3.5q.29-1.47.5-2.94h-2.66l-3.22.11-.11-.08.11-2.16v-2l-.11-2.13.11-.11,3.25.14ZM270.86,8.84a14.75,14.75,0,0,1,2.74,3.08L272.12,13a13.23,13.23,0,0,0-2.72-3.28ZM286.43,28H271.06v3.58h15.37Zm-13.19-9.24v3.33h10.81V18.75Zm4.31-10.39a14.71,14.71,0,0,1,2.74,3.19l-1.48,1.06a15.35,15.35,0,0,0-2.72-3.36Z"/><path d="M310.5,12.42c1.48,1.43,1.85,1.82,1.85,2.13s-.28.5-.92.76a27.69,27.69,0,0,1-4.12,7,61.59,61.59,0,0,1,8,8l-1.68,1.51a59.71,59.71,0,0,0-7.62-8A36.94,36.94,0,0,1,295.41,32,8.43,8.43,0,0,0,294,30.4c6.5-3,12.57-9.07,15.26-15.48h-9.32l-4.26.08V13l4.26.11h9.49l.73-.67Z"/><path d="M337.51,12.78c1.62,1.57,1.79,1.79,1.79,2.07s-.28.48-.73.73A29.7,29.7,0,0,1,334,24.32c1,.9,1.93,1.82,2.74,2.63l-1.4,1.46c-.7-.78-1.6-1.68-2.58-2.63a27.73,27.73,0,0,1-10.7,7,7.1,7.1,0,0,0-1.26-1.54,26.23,26.23,0,0,0,10.5-6.83,48.28,48.28,0,0,0-4.7-3.75l1.18-1.37a49.2,49.2,0,0,1,4.76,3.7,24.19,24.19,0,0,0,3.95-7.92l-8.43.08a28.43,28.43,0,0,1-6.94,7.56,7.21,7.21,0,0,0-1.46-1.32A24.94,24.94,0,0,0,328,11.1c-.36-.34-.62-.59-.62-.81s.11-.28.36-.28a8.53,8.53,0,0,1,2.72,1c-.45.81-.9,1.62-1.34,2.38l7.31-.06.73-.59Z"/><path d="M346.71,17.8a21,21,0,0,1,3.16,5.43l-1.65.9a22.3,22.3,0,0,0-3.08-5.4ZM362,19.06c-1.4,7.9-5.68,12-12.77,14.17A5.4,5.4,0,0,0,348,31.68c6.38-1.88,11.17-5.57,12.07-13.47-.5-.36-.73-.62-.73-.84s.14-.28.39-.28a10,10,0,0,1,2.6.76Zm-9.44-2.27a23.79,23.79,0,0,1,2.6,5.21l-1.68.84A22.23,22.23,0,0,0,351,17.6Z"/><path d="M384.16,15.05c-.31,9.27-6.44,15.85-14.92,17.25a7.11,7.11,0,0,0-1-1.76c7.67-1.23,13.61-7.06,13.72-15.4H370.49l-4.23.11v-2l4.23.11H380L384,13.2l.17.14Z"/></svg>