<svg xmlns="http://www.w3.org/2000/svg" viewBox="0 0 332.87 43"><defs><style>.cls-1{font-size:30px;font-family:ToppanBunkyuGothicPr6N-Regular-83pv-RKSJ-H, Toppan Bunkyu Gothic;}.cls-2{letter-spacing:0.03em;}.cls-3{letter-spacing:-0.02em;}.cls-4{letter-spacing:-0.01em;}.cls-5{letter-spacing:0.03em;}.cls-6{letter-spacing:0em;}.cls-7{letter-spacing:-0.06em;}.cls-8{letter-spacing:-0.09em;}.cls-9{letter-spacing:-0.16em;}.cls-10{letter-spacing:-0.23em;}.cls-11{fill:#c1272d;}.cls-12{fill:#fff;}</style></defs><title>logo</title><text class="cls-1" transform="translate(48.56 32.53)"><tspan class="cls-2">早</tspan><tspan class="cls-3" x="30.97" y="0">稲</tspan><tspan class="cls-4" x="60.3" y="0">田</tspan><tspan class="cls-5" x="89.88" y="0">祭</tspan><tspan class="cls-6" x="120.76" y="0">運</tspan><tspan class="cls-7" x="150.68" y="0">営</tspan><tspan class="cls-8" x="178.75" y="0">ス</tspan><tspan class="cls-9" x="205.95" y="0">タ</tspan><tspan class="cls-10" x="231.28" y="0">ッ</tspan><tspan x="254.3" y="0">フ</tspan></text><rect class="cls-11" width="43" height="43"/><path d="M19.91,37a18.53,18.53,0,0,1-2-.07l-.27,0-1.49-3.07a19.49,19.49,0,0,1-3.41,2.5l-.25.15-7.32-4.3,1.31-.25a11.71,11.71,0,0,0,3.91-1.5l-1.45-.5.3-.15-.89.21L5.56,24.68l3.1-3.33-3.4-4.12.85-.15A17.34,17.34,0,0,0,11,15.53l-.47-.25L10,15.6,9.35,16l-4-4.67.76-.21a7.6,7.6,0,0,0,4-2.62L8.91,7.81,11.5,6.05l5.9.81-.19.57c0,.12-.09.25-.14.38l1.62-1.09,2,1.16,1.52-1.69,1.48,1.21c.93-.09,2.56-.15,4.16-.15.74,0,1.47,0,2.13,0l1.63-1.4,4.66,4.28-.19.34a17.33,17.33,0,0,1-3.37,4.14,21.42,21.42,0,0,0,4.19.54l.72,0-2.73,6.33L37.3,24l-1.95,5.7-.43-.09c-.88-.19-1.86-.35-2.92-.49a49.84,49.84,0,0,1,4.68,3.53l.64.54L29.91,36.1l-.23-.3a36.15,36.15,0,0,0-3.51-4.06v1.52c0,3.29-2.45,3.71-4.58,3.71Zm-2.11-4.74c.05,0,.13-.09.14-.13V31.7l-.36.51Zm.14-2.91v-.62q-1.2.06-2.29.15Zm8.25-.25,1.17-.36-1.17,0ZM11.25,23.17l2-.15-.77-1.26a20.28,20.28,0,0,1-1.86.93Zm18.91-.38,1.78.08,1.47-1.23a22.53,22.53,0,0,1-2.26-.9Zm-7.49-.14c-.62,0-1.28,0-2,0s-1.5,0-2.18.09c1.84-.06,3.76-.09,5.67-.09h.44c-.61,0-1.26,0-1.95,0ZM20,15a18.89,18.89,0,0,1-2.39,3c1.71-.09,3.53-.14,5-.16Zm1.25-2.29q-.36.79-.79,1.54A16.59,16.59,0,0,0,22.93,14q-.26-.38-.45-.75l-1,.38Z"/><path class="cls-12" d="M31.55,6.54l4,3.71a18.45,18.45,0,0,1-3.91,4.61,19.13,19.13,0,0,0,5.15.8l-2.47,5.75a21.58,21.58,0,0,1-3.44-1.34l-1.24,2.57a47.8,47.8,0,0,0-7-.5c-.64,0-1.3,0-2,0a35.26,35.26,0,0,0-6.89.7l-1.1-1.81a20,20,0,0,1-2.54,1.27L6.2,17.57a17,17,0,0,0,5.82-2c-.47-.27-1-.57-1.54-.84-.33.23-.67.43-1,.67L6.24,11.62c2.21-.6,4.48-2.37,4.48-3.34l-.87-.5,1.77-1.2,5.12.7a7,7,0,0,1-.47,1.07h.9l1.54-1,2,1.2,1.47-1.64,1.27,1c.87-.1,2.61-.17,4.31-.17.8,0,1.6,0,2.31,0l1.44-1.24M15.83,11.65a4.76,4.76,0,0,0,.4-.84c-.3,0-.94-.07-1.67-.07a4.68,4.68,0,0,1-.33.53c.5.1,1.07.23,1.6.37m.4,6.89c2.24-.17,4.88-.23,7.52-.27l-3.34-3.54a12.65,12.65,0,0,0,3.34-.43,9.85,9.85,0,0,1-1-1.67c-.3.1-.57.2-.9.33l-.53-1.77a18,18,0,0,1-5,7.36m12.2-6.92c-.47,0-1.3.07-2.17.13a7.6,7.6,0,0,0,1,1.07,4.38,4.38,0,0,0,1.17-1.2M14,14c.23-.2.43-.43.64-.64-.57-.2-1.17-.4-1.77-.57-.17.17-.37.37-.57.53.53.2,1.14.43,1.71.67m10.8,4.28h3c-.4-.3-.8-.6-1.14-.9a19.86,19.86,0,0,1-1.91.9m9.39,3.34,2.51,2.51-1.71,5a54.12,54.12,0,0,0-9.33-1v1.6l4.21-1.3A40.39,40.39,0,0,1,36.36,33l-6.29,2.47a34.49,34.49,0,0,0-4.41-4.91v2.67c0,2.61-1.67,3.21-4.08,3.21H19.91a18.15,18.15,0,0,1-2-.07L16.27,33a18.34,18.34,0,0,1-3.81,2.91L6.54,32.38a10.42,10.42,0,0,0,4.85-2.17l-1.17-.4,2.27-1.1,5.88,1.2a11.2,11.2,0,0,1-1.71,2.64,4.45,4.45,0,0,0,1.14.17.68.68,0,0,0,.64-.6V28.17a53.05,53.05,0,0,0-9.86,1.2L6.17,24.76l2.71-2.91,2.21,1.84c3.78-.33,8.56-.5,13.11-.5,2.81,0,5.55.07,7.92.2l2.11-1.77M31.57,5.2l-.67.58-1.14,1c-.62,0-1.3,0-2,0-1.5,0-3,.05-4,.13l-1-.78-.74-.6-.64.71-.92,1-1.33-.79-.54-.32-.52.35L18,6.56l0-.11-1.19-.16-5.12-.7-.38-.05-.32.22L9.29,6.95,8,7.84l1.38.8.05,0a8.06,8.06,0,0,1-3.43,2l-1.52.42,1,1.2L8.63,16a19.12,19.12,0,0,1-2.6.63l-1.7.29,1.1,1.33L8,21.32,5.44,24.08,5,24.6l.33.63,2.41,4.61,0,.07L7.6,30l.2.07.26.49.69-.17.38.13a11.63,11.63,0,0,1-2.77.91l-2.63.49L6,33.24l5.92,3.48.51.3.51-.3a21.11,21.11,0,0,0,3-2.11L17,36.83l.24.5.55.06a18.84,18.84,0,0,0,2.08.07h1.67c1.26,0,5.08,0,5.08-4.21V33a38.55,38.55,0,0,1,2.61,3.14l.46.61.71-.28,6.29-2.47,1.57-.62L37,32.25Q35.46,31,34.07,29.94l.74.15.87.19.29-.84,1.71-5,.2-.59-.44-.44-2-2,2.31-5.36.57-1.32-1.44-.07a25.1,25.1,0,0,1-3.21-.33,16.35,16.35,0,0,0,2.8-3.61l.38-.69-.58-.53-4-3.71-.65-.6ZM18.77,17.4A19.22,19.22,0,0,0,20,15.78l1.45,1.53-2.71.08Zm12.17,4.93.45-.93,1,.42-.65.55-.83,0Zm-19,.28.36-.19.09.15-.46,0Z"/></svg>